<svg id="a" xmlns="http://www.w3.org/2000/svg" width="123.48" height="44"><title>Gartner Peer Insights</title><text class="screen-reader-text" font-size="0">Gartner Peer Insights</text><defs><style>.b{fill:#002856}.c{fill:#40b3e1}</style></defs><path class="b" d="M10.89 28.4v.09c0 3.26-2.44 4.53-5.37 4.53h-2.5v6.24H1.15V23.91h4.36c2.94 0 5.37 1.29 5.37 4.49Zm-1.87.09v-.09c0-2.17-1.29-2.98-3.37-2.98H3.02v6.12h2.61c2.2 0 3.38-1.06 3.38-3.05ZM11.4 33.77v-.17c0-3.4 2.17-5.76 5.26-5.76 2.6 0 5.05 1.57 5.05 5.59v.58h-8.46c.09 2.56 1.31 3.97 3.61 3.97 1.74 0 2.75-.65 2.98-1.96h1.8c-.39 2.26-2.26 3.44-4.79 3.44-3.2 0-5.45-2.23-5.45-5.69Zm5.26-4.45c-1.83 0-3.05 1.25-3.35 3.24h6.57c-.17-2.32-1.38-3.24-3.22-3.24ZM23.27 33.77v-.17c0-3.4 2.17-5.76 5.27-5.76 2.6 0 5.05 1.57 5.05 5.59v.58h-8.46c.09 2.56 1.31 3.97 3.61 3.97 1.74 0 2.75-.65 2.98-1.96h1.78c-.39 2.26-2.26 3.44-4.79 3.44-3.18 0-5.44-2.23-5.44-5.69Zm5.27-4.45c-1.83 0-3.05 1.25-3.35 3.24h6.58c-.17-2.32-1.37-3.24-3.22-3.24ZM37.6 30.05c.71-1.27 1.68-2.15 3.69-2.21v1.68c-2.26.11-3.69.81-3.69 3.59v6.17h-1.78V28.04h1.78v2.02Z"/><path class="c" d="M49.12 39.26h-1.87V23.9h1.87v15.36ZM53.5 29.81c.52-1.05 1.76-1.98 3.61-1.98 2.32 0 3.95 1.27 3.95 4.53v6.9h-1.78v-7.02c0-1.98-.84-2.86-2.64-2.86-1.65 0-3.14 1.05-3.14 3.07v6.81h-1.78V28.02h1.78v1.78ZM62.52 35.81h1.74c.13 1.33.84 2.17 2.64 2.17 1.7 0 2.44-.58 2.44-1.78s-.88-1.57-2.62-1.9c-2.92-.54-3.91-1.36-3.91-3.31 0-2.08 2.04-3.16 3.8-3.16 2.02 0 3.76.81 4.07 3.26h-1.72c-.26-1.22-.95-1.76-2.36-1.76-1.29 0-2.13.64-2.13 1.61s.56 1.42 2.62 1.78c2.32.43 3.95.94 3.95 3.33 0 2.04-1.4 3.42-4.13 3.42-2.68 0-4.29-1.36-4.4-3.66ZM72.75 24.5a1.202 1.202 0 0 1 .73-1.1c.22-.09.45-.11.68-.07.23.05.44.16.61.32.17.17.28.38.32.61.05.23.02.47-.07.68-.09.22-.24.4-.44.53a1.167 1.167 0 0 1-1.49-.15c-.22-.22-.35-.52-.35-.83Zm2.1 14.76h-1.78V28.03h1.78v11.23ZM77.09 39.91h1.83c.27 1.29 1.33 1.95 3.26 1.95 2.21 0 3.61-1.05 3.61-3.46v-1.63c-.41.64-.97 1.16-1.64 1.53-.66.37-1.4.57-2.16.59-2.94 0-5.11-2.24-5.11-5.33v-.15c0-3.05 2.15-5.59 5.24-5.59 1.87 0 3.03.9 3.67 2v-1.81h1.77v10.48c-.02 3.26-2.23 4.86-5.37 4.86-3.33 0-4.8-1.57-5.09-3.46Zm8.74-6.46v-.15c0-2.51-1.38-3.97-3.57-3.97s-3.56 1.65-3.56 4.01v.17c0 2.44 1.57 3.91 3.46 3.91 2.08-.01 3.67-1.47 3.67-3.97ZM92.13 29.81c.52-1.05 1.76-1.98 3.61-1.98 2.32 0 3.95 1.27 3.95 4.53v6.9h-1.78v-7.02c0-1.98-.84-2.86-2.64-2.86-1.65 0-3.14 1.05-3.14 3.07v6.81h-1.78v-16.6h1.78v7.15ZM102.57 36.45v-6.92h-1.61v-1.51h1.61v-2.56h1.78v2.56h2.62v1.51h-2.62v6.74c0 1.08.49 1.63 1.4 1.63.47.01.94-.07 1.38-.24v1.5c-.49.17-1.01.25-1.53.24-2.04.01-3.03-1.2-3.03-2.96ZM108 35.81h1.74c.13 1.33.84 2.17 2.64 2.17 1.7 0 2.44-.58 2.44-1.78s-.88-1.57-2.62-1.9c-2.92-.54-3.91-1.36-3.91-3.31 0-2.08 2.04-3.16 3.8-3.16 2.02 0 3.76.81 4.07 3.26h-1.72c-.26-1.22-.94-1.76-2.36-1.76-1.29 0-2.13.64-2.13 1.61s.56 1.42 2.62 1.78c2.32.43 3.95.94 3.95 3.33 0 2.04-1.39 3.42-4.12 3.42-2.68 0-4.29-1.36-4.4-3.66Z"/><path class="b" d="m58.02 4.93-.17 2.01h-.81c-1.31 0-1.99 1.05-1.99 2.06v4.54h-2.32V4.93h2.2l.05 1.09c.46-.74 1.27-1.09 2.26-1.09h.78ZM41.93 13.52h-2.32V8.97c0-.95-.08-2.15-1.42-2.15s-1.8.93-1.8 2.02v4.68h-2.32V4.93h2.15l.05 1.09c.46-.74 1.32-1.31 2.59-1.31 2.34 0 3.08 1.67 3.08 3.41v5.41ZM33.05 11.52l-.16 1.96c-.54.14-1.09.21-1.65.2-2.19 0-2.81-1-2.81-3.01V2.5h2.32v2.42h2.29l-.16 2.01h-2.15v3.55c0 .81.22 1.25 1.05 1.25.43 0 .86-.07 1.26-.21M27.65 4.93l-.18 2.01h-.63c-1.31 0-1.96 1.05-1.96 2.06v4.54h-2.32V4.93h2.2l.05 1.09c.46-.74 1.27-1.09 2.27-1.09h.58ZM12.07 12.57a9.85 9.85 0 0 1-5.23 1.27C2.99 13.72.21 11.33.21 7.29S3.02.7 6.85.63c1.94-.03 3.67.46 5.03 1.66l-1.63 1.65c-.84-.72-2.08-1.15-3.55-1.07-2.41.11-3.86 1.86-3.89 4.26-.03 2.61 1.57 4.41 4.07 4.47.94.06 1.88-.09 2.75-.46V8.48h-2.6l.17-2.17h4.88v6.24ZM49.36 8.24c-.07-1.09-.89-1.77-2.01-1.73-.49 0-.97.17-1.34.49-.37.32-.62.76-.7 1.24h4.04Zm2.33 1.8h-6.37c.08.51.33.97.72 1.29.39.33.89.51 1.4.5 1.04.03 1.63-.29 2.4-1.06l1.52 1.16a4.628 4.628 0 0 1-3.84 1.81c-2.59 0-4.53-1.81-4.53-4.51s1.93-4.51 4.43-4.51c2.76 0 4.27 1.67 4.27 4.64v.69ZM18.86 9.78h-.32c-1.1 0-3.03.05-3.02 1.21 0 1.63 3.35 1.1 3.35-.85v-.36ZM21.1 7.9v5.63h-2.05l-.05-.85c-.63.78-1.65 1.06-2.71 1.06-1.58 0-3.08-.78-3.11-2.6-.05-2.86 3.21-3.06 5.26-3.06h.41v-.11c0-.94-.63-1.45-1.8-1.45-.85 0-1.67.33-2.29.92l-1.34-1.36c1.07-.9 2.43-1.38 3.83-1.36 2.68 0 3.86 1.23 3.86 3.17Z"/><path class="c" d="M118.04 36.85h2.02v.4h-.76v2.32h-.51v-2.32h-.76v-.4ZM121.82 38.7l.7-1.85h.67v2.71h-.5v-2.04l-.81 2.05h-.16l-.81-2.05v2.05h-.46v-2.71h.68l.71 1.84Z"/></svg>
