<svg class="icon icon-twitter" width="25" height="25" fill="none"><path fill="#006ECF" d="M16.667 3.125c-2.83 0-5.125 2.286-5.186 5.1-2.501-.3-4.13-1.235-5.13-2.156-1.107-1.022-1.458-1.93-1.458-1.93a.781.781 0 0 0-1.35-.18s-.939 1.25-.939 3.072c0 1.042.33 1.814.721 2.467-.014-.007-.112-.04-.112-.04a.781.781 0 0 0-1.127.77s.301 2.197 2.368 3.804l-.216.054a.782.782 0 0 0-.49 1.145s.351.593 1.085 1.217c.435.37 1.074.752 1.828 1.105-.925.338-2.305.676-4.317.676a.78.78 0 0 0-.588 1.296s.597.658 1.777 1.23 2.998 1.12 5.582 1.12c4.541 0 7.804-2.179 9.84-4.94 2.037-2.761 2.92-6.07 2.92-8.602 0-.16-.01-.319-.024-.476 1.1-1.06 1.512-1.856 1.532-1.895a.52.52 0 0 0-.684-.706l-.085.039-.217.1c.212-.339.38-.7.495-1.074a.52.52 0 0 0-.767-.6 7.597 7.597 0 0 1-1.882.84 5.185 5.185 0 0 0-3.576-1.436Zm0 1.563a3.634 3.634 0 0 1 3.645 3.645c0 2.156-.81 5.227-2.614 7.675-1.805 2.447-4.531 4.305-8.583 4.305-1.961 0-3.266-.355-4.243-.739 1.023-.159 1.905-.371 2.539-.617 1.098-.425 1.691-.916 1.691-.916a.782.782 0 0 0-.32-1.35c-1.417-.355-2.327-.929-2.897-1.407l.815-.203a.782.782 0 0 0 .091-1.487c-1.69-.65-2.4-1.57-2.763-2.34.442.091.853.204 1.44.204a.78.78 0 0 0 .35-1.48s-1.651-.76-1.651-2.947c0-.392.108-.641.188-.939.272.367.497.72.937 1.125 1.34 1.237 3.557 2.498 6.906 2.678a.781.781 0 0 0 .823-.78v-.782a3.634 3.634 0 0 1 3.646-3.646Z"/></svg>