<svg class="icon icon-calendar" viewBox="0 0 18 18" width="18" height="18" fill="none" xmlns="http://www.w3.org/2000/svg"><path d="M4.688 2.25A2.446 2.446 0 0 0 2.25 4.688v8.625a2.446 2.446 0 0 0 2.438 2.437h8.625a2.446 2.446 0 0 0 2.437-2.438V4.688a2.446 2.446 0 0 0-2.438-2.438H4.688Zm0 1.125h8.625c.73 0 1.312.581 1.312 1.313v.562H3.375v-.563c0-.73.581-1.312 1.313-1.312Zm-1.313 3h11.25v6.938c0 .73-.581 1.312-1.313 1.312H4.688a1.304 1.304 0 0 1-1.313-1.313V6.375Zm2.438 1.5a.937.937 0 1 0 0 1.875.937.937 0 0 0 0-1.875Zm3.187 0A.937.937 0 1 0 9 9.75a.937.937 0 0 0 0-1.875Zm3.188 0a.937.937 0 1 0 0 1.875.937.937 0 0 0 0-1.875ZM5.811 11.25a.938.938 0 1 0 0 1.875.938.938 0 0 0 0-1.875Zm3.188 0a.938.938 0 1 0 0 1.875.938.938 0 0 0 0-1.875Z" fill="#006ECF"/></svg>
