<svg fill="none" xmlns="http://www.w3.org/2000/svg" viewBox="0 0 19 16">
  <path d="M16.765 4.337c.012.16.012.32.012.48 0 4.872-3.709 10.486-10.486 10.486-2.088 0-4.028-.605-5.66-1.655.297.034.582.046.89.046a7.38 7.38 0 0 0 4.576-1.575A3.692 3.692 0 0 1 2.65 9.563c.228.034.456.057.696.057.33 0 .662-.045.97-.125A3.686 3.686 0 0 1 1.36 5.878v-.046c.491.274 1.062.445 1.666.468a3.683 3.683 0 0 1-1.643-3.07c0-.684.183-1.312.502-1.86a10.476 10.476 0 0 0 7.6 3.857 4.16 4.16 0 0 1-.092-.844A3.684 3.684 0 0 1 13.08.698c1.06 0 2.02.445 2.692 1.163a7.256 7.256 0 0 0 2.34-.89 3.676 3.676 0 0 1-1.62 2.031 7.39 7.39 0 0 0 2.122-.57 7.924 7.924 0 0 1-1.849 1.905Z" fill="currentColor"/>
</svg>
