<svg fill="none" xmlns="http://www.w3.org/2000/svg" viewBox="0 0 16 15">
  <path d="M8.44 13.75A.626.626 0 1 1 8.438 15a.626.626 0 0 1 0-1.251Zm-2.188-.624a.627.627 0 0 1 .6.87.624.624 0 1 1-.6-.87Zm4.374 0a.627.627 0 0 1 .247 1.209.625.625 0 1 1-.247-1.21ZM8.44 3.75c2.311 0 3.622 1.474 3.812 3.256h.058c1.487 0 2.693 1.16 2.693 2.59 0 1.431-1.206 2.591-2.693 2.591h-7.74c-1.487 0-2.692-1.16-2.692-2.59s1.205-2.59 2.692-2.59h.058C4.82 5.212 6.128 3.75 8.44 3.75ZM1.692 6.28a.469.469 0 0 1-.213.563l-.078.034-.75.259a.469.469 0 0 1-.383-.852l.077-.034.752-.259a.469.469 0 0 1 .595.29Zm4.797-3.937c.311.152.586.35.819.582-1.652.34-2.841 1.437-3.322 2.958l-.06.21-.044.176-.155.028a3.525 3.525 0 0 0-1.172.472A3.075 3.075 0 0 1 6.49 2.344Zm-5.628.16.078.03.715.348a.469.469 0 0 1-.332.872l-.08-.03-.713-.347a.469.469 0 0 1 .331-.873h.001ZM7.492.277a.469.469 0 0 1 .246.549l-.03.078-.348.715a.469.469 0 0 1-.873-.332l.03-.08.349-.714a.469.469 0 0 1 .626-.216ZM3.94.247l.035.077.259.752a.469.469 0 0 1-.853.382l-.033-.077-.26-.751A.469.469 0 0 1 3.94.247Z" fill="currentColor"/>
</svg>
