<svg xmlns="http://www.w3.org/2000/svg" viewBox="0 0 14 14" style="enable-background:new 0 0 14 14" xml:space="preserve"><path fill="#006ecf" d="M11.2 6.6c.5 0 .9-.4.9-.9V2.6c0-.5-.4-.9-.9-.9H2.8c-.5 0-.9.4-.9.9v3.1c0 .5.4.9.9.9h.3v.8h-.3c-.5 0-.9.4-.9.9v3.1c0 .5.4.9.9.9h8.3c.5 0 .9-.4.9-.9V8.3c0-.5-.4-.9-.9-.9h-.3v-.8h.4zm0 1.6s.1 0 0 0l.1 3.2c0 .1 0 .1-.1.1H2.8c-.1 0-.1 0-.1-.1V8.3c0-.1 0-.1.1-.1h8.4zM4 7.4v-.8h6v.8H4zM2.8 5.8s-.1 0 0 0l-.1-3.2c0-.1 0-.1.1-.1h8.3c.1 0 .1 0 .1.1v3.1c0 .1 0 .1-.1.1H2.8z"/><path fill="#006ecf" d="M5.6 10.2c.2 0 .4-.2.4-.4s-.2-.4-.4-.4-.4.2-.4.4c0 .3.2.4.4.4z"/><circle fill="#006ecf" cx="4" cy="9.8" r=".4"/><path fill="#006ecf" d="M7.2 10.2H10c.2 0 .4-.2.4-.4s-.2-.4-.4-.4H7.2c-.2 0-.4.2-.4.4 0 .3.2.4.4.4zM5.6 3.8c-.2 0-.4.2-.4.4s.2.4.4.4.4-.2.4-.4c0-.3-.2-.4-.4-.4zM4 3.8c-.2 0-.4.2-.4.4s.2.4.4.4.4-.2.4-.4c0-.3-.2-.4-.4-.4zM10 3.8H7.2c-.2 0-.4.1-.4.4 0 .2.2.4.4.4H10c.2 0 .4-.2.4-.4 0-.3-.1-.4-.4-.4z"/></svg>
