<svg class="icon icon-instagram" width="25" height="25" fill="none"><path fill="#006ECF" d="M8.594 2.604c-3.299 0-5.99 2.691-5.99 5.99v7.812c0 3.299 2.69 5.99 5.99 5.99h7.812c3.299 0 5.99-2.691 5.99-5.99V8.594c0-3.299-2.692-5.99-5.99-5.99H8.594Zm0 1.563h7.812a4.416 4.416 0 0 1 4.427 4.427v7.812a4.416 4.416 0 0 1-4.427 4.427H8.594a4.416 4.416 0 0 1-4.427-4.427V8.594a4.415 4.415 0 0 1 4.427-4.427Zm9.114 2.083a1.041 1.041 0 1 0 0 2.083 1.041 1.041 0 0 0 0-2.083ZM12.5 7.292A5.22 5.22 0 0 0 7.292 12.5a5.22 5.22 0 0 0 5.208 5.208 5.22 5.22 0 0 0 5.208-5.208A5.22 5.22 0 0 0 12.5 7.292Zm0 1.562a3.634 3.634 0 0 1 3.646 3.646 3.634 3.634 0 0 1-3.646 3.646A3.634 3.634 0 0 1 8.854 12.5 3.634 3.634 0 0 1 12.5 8.854Z"/></svg>