<svg width="19" height="18" viewBox="0 0 19 18" fill="none" xmlns="http://www.w3.org/2000/svg">
<path d="M9.81573 0.522596C9.68723 0.521794 9.56109 0.557013 9.4516 0.624259C9.34211 0.691504 9.25365 0.788085 9.19626 0.903049L6.83477 5.62603L1.22735 6.48899C1.10183 6.50838 0.984142 6.56216 0.887328 6.64436C0.790514 6.72656 0.718359 6.83397 0.678865 6.95468C0.639371 7.07539 0.634081 7.20467 0.663582 7.3282C0.693084 7.45173 0.756223 7.56468 0.845998 7.65451L4.72482 11.5333L3.86097 17.147C3.84165 17.2726 3.8575 17.4011 3.90678 17.5182C3.95606 17.6354 4.03684 17.7365 4.14014 17.8105C4.24345 17.8845 4.36523 17.9285 4.49199 17.9374C4.61874 17.9464 4.74551 17.9201 4.85821 17.8614L9.81125 15.277L14.7643 17.8614C14.877 17.9201 15.0038 17.9464 15.1305 17.9374C15.2573 17.9285 15.3791 17.8845 15.4824 17.8105C15.5857 17.7365 15.6664 17.6354 15.7157 17.5182C15.765 17.4011 15.7809 17.2726 15.7615 17.147L14.8977 11.5333L18.7765 7.65451C18.8663 7.56468 18.9294 7.45173 18.9589 7.3282C18.9884 7.20467 18.9831 7.07539 18.9436 6.95468C18.9041 6.83397 18.832 6.72656 18.7352 6.64436C18.6384 6.56216 18.5207 6.50838 18.3952 6.48899L12.7877 5.62603L10.4262 0.903049C10.3695 0.789446 10.2825 0.693765 10.1747 0.626612C10.0669 0.559459 9.94269 0.523457 9.81573 0.522596Z" fill="#00ACD7"/>
</svg>
