<svg fill="none" xmlns="http://www.w3.org/2000/svg" viewBox="0 0 14 14">
  <path fill-rule="evenodd" clip-rule="evenodd" d="M8.269.652a.914.914 0 0 1 .845-.566H13c.505 0 .914.41.914.914v3.86a.914.914 0 0 1-1.558.648L11.13 4.291 7.093 8.376a.914.914 0 1 1-1.3-1.284l4.04-4.09L8.47 1.649a.914.914 0 0 1-.201-.996ZM.266 2.722c0-.505.41-.914.914-.914h5.34a.914.914 0 1 1 0 1.828H2.094v8.45h8.45V7.66a.914.914 0 1 1 1.828 0V13c0 .505-.41.914-.914.914H1.18A.914.914 0 0 1 .266 13V2.722Z" fill="currentColor"/>
</svg>
