<svg id="Layer_1" data-name="Layer 1" xmlns="http://www.w3.org/2000/svg" width="24" height="24"><defs><style>.cls-1{fill:#2e6eb6}</style></defs><path class="cls-1" d="M12 23.8a2.08 2.08 0 0 1-1-.27l-8.47-4.88a2 2 0 0 1-1-1.78V7.13a2 2 0 0 1 1-1.78L11 .47a2.11 2.11 0 0 1 2 0l8.45 4.88a2 2 0 0 1 1 1.78v9.74a2 2 0 0 1-1 1.78L13 23.53a2.08 2.08 0 0 1-1 .27Zm0-22.72a1.28 1.28 0 0 0-.58.15L3 6.11a1.17 1.17 0 0 0-.59 1v9.74a1.21 1.21 0 0 0 .59 1l8.45 4.85a1.15 1.15 0 0 0 1.16 0L21 17.86a1.21 1.21 0 0 0 .59-1V7.13a1.21 1.21 0 0 0-.59-1l-8.42-4.9a1.28 1.28 0 0 0-.58-.15Z"/><path class="cls-1" d="M14.92 18H7.61a.78.78 0 0 1-.76-.76V7.6a.46.46 0 0 1 .44-.44.45.45 0 0 1 .44.44v9.59h7.19a.44.44 0 0 1 .44.44.43.43 0 0 1-.44.37Z"/><path class="cls-1" d="M16.39 16.58H9.08a.78.78 0 0 1-.76-.76V6.14a.77.77 0 0 1 .76-.76h4.79a.48.48 0 0 1 .32.12l2.87 2.86a.42.42 0 0 1 .11.32v7.16a.79.79 0 0 1-.78.74Zm-7.2-.88h7.11V8.83l-2.6-2.6H9.19v9.47Z"/><path class="cls-1" d="M14.13 5.47 17 8.33a.42.42 0 0 1 .09.47.48.48 0 0 1-.38.29h-2.55a.77.77 0 0 1-.76-.76V5.79a.49.49 0 0 1 .27-.41Zm.18 2.74h1.34l-1.34-1.37Z"/></svg>