<svg id="Layer_1" data-name="Layer 1" xmlns="http://www.w3.org/2000/svg" width="24" height="24"><defs><style>.cls-1{fill:#2e6eb6}</style></defs><path class="cls-1" d="M12 23.8a2 2 0 0 1-1-.28l-8.47-4.87a2.07 2.07 0 0 1-1-1.78V7.13a2.07 2.07 0 0 1 1-1.78L11 .48a2.05 2.05 0 0 1 2 0l8.44 4.87a2.07 2.07 0 0 1 1 1.78v9.74a2.07 2.07 0 0 1-1 1.78L13 23.52a2.13 2.13 0 0 1-1 .28Zm0-22.72a1.14 1.14 0 0 0-.59.16L3 6.11a1.18 1.18 0 0 0-.58 1v9.74a1.18 1.18 0 0 0 .58 1l8.44 4.87a1.18 1.18 0 0 0 1.18 0L21 17.89a1.18 1.18 0 0 0 .58-1V7.13a1.18 1.18 0 0 0-.58-1l-8.41-4.89a1.14 1.14 0 0 0-.59-.16Z"/><path class="cls-1" d="M14.77 18.16H9.23a2.4 2.4 0 0 1-1.77-.69 2.47 2.47 0 0 1-.69-1.82v-.74c0-.24 0-.52.1-.8a8.28 8.28 0 0 1 .19-.82 5 5 0 0 1 .33-.8 3.53 3.53 0 0 1 .53-.72 2.51 2.51 0 0 1 1.79-.71 1.18 1.18 0 0 1 .7.28l.46.31a2 2 0 0 0 .5.23 1.8 1.8 0 0 0 1.21 0 2.2 2.2 0 0 0 .5-.23l.46-.31a1.21 1.21 0 0 1 .7-.28 2.74 2.74 0 0 1 1 .19 2.55 2.55 0 0 1 .79.53 3.05 3.05 0 0 1 .53.72 4.55 4.55 0 0 1 .33.79 6.18 6.18 0 0 1 .19.82c0 .28.08.55.1.8s0 .49 0 .74a2.47 2.47 0 0 1-.7 1.82 2.36 2.36 0 0 1-1.71.69Zm-5-6.22a1.75 1.75 0 0 0-.65.12 1.66 1.66 0 0 0-.51.33 2 2 0 0 0-.37.52 4.27 4.27 0 0 0-.27.63 6.72 6.72 0 0 0-.17.71 6.88 6.88 0 0 0-.08.72v.68a1.62 1.62 0 0 0 .44 1.2 1.55 1.55 0 0 0 1.15.43h5.54a1.55 1.55 0 0 0 1.15-.43 1.62 1.62 0 0 0 .44-1.2v-.68a6.88 6.88 0 0 0-.08-.72 6.72 6.72 0 0 0-.17-.71 4.27 4.27 0 0 0-.27-.63 2.3 2.3 0 0 0-.37-.52 1.87 1.87 0 0 0-.51-.33 1.76 1.76 0 0 0-.66-.12l-.21.12-.47.32a3.16 3.16 0 0 1-.71.33 2.66 2.66 0 0 1-1.76 0 3.16 3.16 0 0 1-.71-.33l-.47-.32a.94.94 0 0 0-.33-.12ZM12 10.78a2.73 2.73 0 1 1 2.73-2.73A2.73 2.73 0 0 1 12 10.78Zm0-4.58a1.85 1.85 0 1 0 1.85 1.85A1.85 1.85 0 0 0 12 6.2Z"/></svg>