<svg width="7" height="10" viewBox="0 0 7 10" fill="none" xmlns="http://www.w3.org/2000/svg"><path d="M0.318948 0.754008C0.321599 0.866139 0.368453 0.97268 0.449303 1.05042L4.3998 5.00092L0.449303 8.95142C0.40858 8.99103 0.376211 9.03841 0.354107 9.09075C0.332002 9.14308 0.320612 9.19932 0.320609 9.25613C0.320631 9.3407 0.345873 9.42334 0.393109 9.49349C0.440344 9.56363 0.507425 9.6181 0.585777 9.64992C0.66413 9.68174 0.750192 9.68948 0.832962 9.67213C0.915731 9.65478 0.991448 9.61315 1.05043 9.55254L5.30149 5.30148C5.38119 5.22176 5.42595 5.11364 5.42595 5.00092C5.42595 4.88819 5.38119 4.78008 5.30149 4.70036L1.05043 0.449293C0.991063 0.387556 0.914433 0.34519 0.830579 0.327743C0.746724 0.310297 0.659556 0.318584 0.580491 0.35152C0.501427 0.384456 0.434154 0.440505 0.387485 0.512324C0.340816 0.584143 0.316927 0.668382 0.318948 0.754008Z" fill="#006ECF"/><path fill-rule="evenodd" clip-rule="evenodd" d="M0.00020715 0.76153C-0.00332882 0.611691 0.0384748 0.464278 0.120142 0.3386C0.201809 0.212924 0.319531 0.114842 0.457888 0.057206C0.596246 -0.000430016 0.748785 -0.0149313 0.895522 0.0155982C1.0411 0.0458868 1.17424 0.119098 1.27778 0.225749L5.52694 4.47491C5.6664 4.61442 5.74478 4.80366 5.74478 5.00092C5.74478 5.19818 5.66644 5.38737 5.52699 5.52688L1.27717 9.7767C1.17421 9.88178 1.04239 9.954 0.898358 9.98418C0.753517 10.0145 0.602915 10.001 0.465804 9.94532C0.328693 9.88963 0.211306 9.79432 0.128648 9.67157C0.0459904 9.54882 0.00181827 9.4042 0.00177937 9.25622C0.00178518 9.1568 0.0217171 9.05829 0.0603977 8.9667C0.0987516 8.87589 0.154768 8.79361 0.225184 8.72464L3.94891 5.00092L0.22576 1.27777C0.0858491 1.14195 0.00481829 0.956565 0.00020715 0.76153ZM0.449303 1.05042L4.3998 5.00092L0.449303 8.95142C0.40858 8.99103 0.376211 9.03841 0.354107 9.09075C0.332002 9.14308 0.320612 9.19932 0.320609 9.25613C0.320631 9.3407 0.345873 9.42334 0.393109 9.49349C0.440344 9.56363 0.507425 9.6181 0.585777 9.64992C0.66413 9.68174 0.750192 9.68948 0.832962 9.67213C0.915731 9.65478 0.991448 9.61315 1.05043 9.55254L5.30149 5.30148C5.38119 5.22176 5.42595 5.11364 5.42595 5.00092C5.42595 4.88819 5.38119 4.78008 5.30149 4.70036L1.05043 0.449293C0.991063 0.387556 0.914433 0.34519 0.830579 0.327743C0.746724 0.310297 0.659556 0.318584 0.580491 0.35152C0.501427 0.384456 0.434154 0.440505 0.387485 0.512324C0.340816 0.584143 0.316927 0.668382 0.318948 0.754008C0.321599 0.866139 0.368453 0.97268 0.449303 1.05042Z" fill="#006ECF"/></svg>
