<svg class="icon icon-server" viewBox="0 0 16 16" width="16" height="16" fill="none" xmlns="http://www.w3.org/2000/svg"><path d="M4.5 1.333a1.841 1.841 0 0 0-1.833 1.834v9.666c0 1.007.826 1.834 1.833 1.834h7a1.841 1.841 0 0 0 1.833-1.834V3.167A1.84 1.84 0 0 0 11.5 1.333h-7Zm0 1h7c.466 0 .833.368.833.834v9.666a.826.826 0 0 1-.833.834h-7a.826.826 0 0 1-.833-.834V3.167c0-.466.367-.834.833-.834Zm.667 1a.5.5 0 0 0-.5.5V8.5a.5.5 0 0 0 .5.5h5.666a.5.5 0 0 0 .5-.5V3.833a.5.5 0 0 0-.5-.5H5.167Zm.5 1h4.666v1.334H5.667V4.333Zm0 2.334h4.666V8H5.667V6.667ZM8 10.333a1 1 0 1 0 0 2 1 1 0 0 0 0-2Z" fill="#006ECF"/></svg>
