<svg class="icon icon-search" aria-hidden="true" width="16" height="15" fill="none" xmlns="http://www.w3.org/2000/svg"><path d="M6.688.5A5.696 5.696 0 0 0 1 6.188a5.696 5.696 0 0 0 5.688 5.687 5.656 5.656 0 0 0 3.402-1.136l3.521 3.521a.815.815 0 0 0 1.16.01.814.814 0 0 0-.01-1.159l-3.522-3.52a5.656 5.656 0 0 0 1.136-3.403A5.696 5.696 0 0 0 6.687.5Zm0 1.625a4.054 4.054 0 0 1 4.062 4.063c0 1.089-.427 2.073-1.12 2.801a.813.813 0 0 0-.14.14 4.045 4.045 0 0 1-2.803 1.121 4.054 4.054 0 0 1-4.062-4.063 4.054 4.054 0 0 1 4.063-4.062Z" fill="#00ACD7" stroke="#00ACD7" stroke-width=".5"/></svg>