<svg fill="none" xmlns="http://www.w3.org/2000/svg" viewBox="0 0 16 16">
  <path d="M10.5 1.667a4.174 4.174 0 0 0-4.167 4.166c0 .47.099.912.243 1.332l-4.039 4.039a1.84 1.84 0 0 0 0 2.592 1.836 1.836 0 0 0 2.593 0l4.038-4.038c.42.144.863.242 1.333.242a4.174 4.174 0 0 0 4.166-4.167c0-.667-.161-1.296-.438-1.853a.5.5 0 0 0-.801-.131l-2.29 2.29a.659.659 0 0 1-.471.194.658.658 0 0 1-.472-.195.659.659 0 0 1 0-.942l2.29-2.29a.5.5 0 0 0-.131-.8 4.15 4.15 0 0 0-1.854-.44Zm0 1c.25 0 .492.03.724.086L9.488 4.488a1.673 1.673 0 0 0 0 2.357 1.668 1.668 0 0 0 2.357 0l1.736-1.736A3.16 3.16 0 0 1 9.23 8.732a.5.5 0 0 0-.554.105l-4.252 4.252a.825.825 0 0 1-.59.244.825.825 0 0 1-.59-.244.826.826 0 0 1 .001-1.178l4.253-4.252a.5.5 0 0 0 .104-.555A3.16 3.16 0 0 1 10.5 2.666Z" fill="#006ECF"/>
</svg>
