<svg fill="none" xmlns="http://www.w3.org/2000/svg" viewBox="0 0 17 16">
  <path d="M8.487 3.965A4.03 4.03 0 0 0 4.451 8a4.03 4.03 0 0 0 4.036 4.036A4.03 4.03 0 0 0 12.523 8a4.03 4.03 0 0 0-4.036-4.035Zm0 6.659A2.628 2.628 0 0 1 5.863 8a2.626 2.626 0 0 1 2.624-2.624A2.626 2.626 0 0 1 11.111 8a2.628 2.628 0 0 1-2.624 2.624Zm5.142-6.825a.94.94 0 0 1-.941.942.941.941 0 1 1 .941-.941Zm2.673.956c-.06-1.261-.348-2.378-1.272-3.298-.92-.92-2.037-1.208-3.298-1.272-1.3-.073-5.194-.073-6.494 0-1.257.06-2.374.348-3.298 1.268C1.017 2.373.732 3.49.67 4.751c-.074 1.3-.074 5.195 0 6.494.06 1.261.348 2.378 1.271 3.298.924.92 2.037 1.209 3.298 1.272 1.3.074 5.195.074 6.494 0 1.261-.06 2.378-.348 3.298-1.272.92-.92 1.208-2.037 1.272-3.298.073-1.3.073-5.19 0-6.49Zm-1.68 7.885a2.656 2.656 0 0 1-1.495 1.496c-1.037.41-3.495.316-4.64.316-1.145 0-3.607.091-4.64-.316a2.656 2.656 0 0 1-1.496-1.496c-.41-1.036-.316-3.495-.316-4.64 0-1.145-.091-3.607.316-4.64a2.656 2.656 0 0 1 1.496-1.496c1.036-.41 3.495-.316 4.64-.316 1.145 0 3.607-.091 4.64.316a2.656 2.656 0 0 1 1.496 1.496c.41 1.037.316 3.495.316 4.64 0 1.145.095 3.607-.316 4.64Z" fill="currentColor"/>
</svg>
