<svg class="icon icon-arrow-down" aria-hidden="true" width="10" height="7" viewBox="0 0 10 7" fill="none" xmlns="http://www.w3.org/2000/svg"><path d="M9.246 1.105a.425.425 0 0 0-.296.13L5 5.185l-3.951-3.95a.425.425 0 1 0-.602.601L4.7 6.087a.425.425 0 0 0 .6 0l4.252-4.25a.425.425 0 0 0-.305-.732Z" fill="#00ACD7"/><path fill-rule="evenodd" clip-rule="evenodd" d="M9.238.786a.744.744 0 0 1 .536 1.277l-4.249 4.25a.744.744 0 0 1-1.052 0l-4.25-4.25A.744.744 0 1 1 1.275 1.01L5 4.735 8.722 1.01a.744.744 0 0 1 .516-.225Zm-.288.449L5 5.185l-3.951-3.95a.425.425 0 1 0-.602.601L4.7 6.087a.425.425 0 0 0 .6 0l4.252-4.25a.425.425 0 1 0-.601-.602Z" fill="#00ACD7"/></svg>
