<svg width="28" height="15" viewBox="0 0 28 15" fill="none" xmlns="http://www.w3.org/2000/svg"><path d="M20.3161 0.0317383C20.1295 0.0317838 19.9472 0.087493 19.7925 0.191739C19.6377 0.295984 19.5176 0.444026 19.4475 0.616921C19.3773 0.789816 19.3604 0.979702 19.3988 1.16228C19.4372 1.34487 19.5292 1.51184 19.663 1.64185L24.3127 6.2915H0.950852C0.826622 6.28975 0.703282 6.3127 0.588 6.35902C0.472717 6.40535 0.367791 6.47412 0.279319 6.56135C0.190848 6.64858 0.120595 6.75252 0.0726441 6.86714C0.0246931 6.98176 0 7.10476 0 7.229C0 7.35325 0.0246931 7.47625 0.0726441 7.59087C0.120595 7.70548 0.190848 7.80942 0.279319 7.89665C0.367791 7.98388 0.472717 8.05266 0.588 8.09898C0.703282 8.14531 0.826622 8.16826 0.950852 8.1665H24.3127L19.663 12.8162C19.573 12.9025 19.5012 13.006 19.4517 13.1205C19.4022 13.235 19.3761 13.3582 19.3748 13.483C19.3736 13.6077 19.3972 13.7314 19.4443 13.8469C19.4915 13.9624 19.5612 14.0673 19.6494 14.1555C19.7376 14.2437 19.8425 14.3134 19.958 14.3605C20.0735 14.4077 20.1972 14.4313 20.3219 14.43C20.4466 14.4288 20.5698 14.4026 20.6843 14.3531C20.7988 14.3036 20.9023 14.2318 20.9887 14.1418L27.2387 7.89184C27.4144 7.71602 27.5132 7.4776 27.5132 7.229C27.5132 6.9804 27.4144 6.74198 27.2387 6.56616L20.9887 0.316162C20.9013 0.226171 20.7968 0.154629 20.6812 0.105774C20.5657 0.0569186 20.4415 0.0317433 20.3161 0.0317383Z" fill="#006ECF"/></svg>
