<svg id="Layer_1" data-name="Layer 1" xmlns="http://www.w3.org/2000/svg" width="28" height="24"><defs><style>.cls-1{fill:#2e6eb6}</style></defs><path class="cls-1" d="M23.44 1.69a3.52 3.52 0 1 1-3.52 3.51 3.52 3.52 0 0 1 3.52-3.51m0-.89a4.41 4.41 0 1 0 4.4 4.4 4.41 4.41 0 0 0-4.4-4.4Z"/><path class="cls-1" d="M14 23.8a2.07 2.07 0 0 1-1-.28l-8.47-4.87a2.08 2.08 0 0 1-1-1.78V7.13a2.08 2.08 0 0 1 1-1.78L13 .48a2 2 0 0 1 2 0l2.78 1.6a.45.45 0 0 1 .16.61.44.44 0 0 1-.6.16l-2.78-1.6a1.17 1.17 0 0 0-1.17 0L5 6.12a1.17 1.17 0 0 0-.59 1v9.74a1.19 1.19 0 0 0 .59 1l8.43 4.87a1.17 1.17 0 0 0 1.17 0l8.4-4.84a1.18 1.18 0 0 0 .58-1v-5.08a.45.45 0 0 1 .89 0v5.06a2 2 0 0 1-1 1.78L15 23.52a2.06 2.06 0 0 1-1 .28ZM23.46 5.56a.44.44 0 0 1-.46-.44V3.4a.45.45 0 0 1 .89 0v1.72a.45.45 0 0 1-.43.44Z"/><circle class="cls-1" cx="23.46" cy="6.82" r=".58"/><path class="cls-1" d="M15.56 18.69a.45.45 0 0 1-.41-.38l-1.4-9.26-1.05 5.14a.44.44 0 0 1-.33.35.48.48 0 0 1-.46-.17l-1.55-2-1 1.76a.43.43 0 0 1-.39.23H6.61a.45.45 0 0 1 0-.89h2.14l1.16-2.12a.42.42 0 0 1 .35-.23.45.45 0 0 1 .39.17L12 13.06l1.36-6.65a.43.43 0 0 1 .43-.35.43.43 0 0 1 .43.37l1.45 9.79 1.37-4.54a.45.45 0 0 1 .34-.31.44.44 0 0 1 .43.16l1.51 1.9h2a.45.45 0 0 1 0 .89h-2.17a.43.43 0 0 1-.35-.17l-1.11-1.41L16 18.37a.44.44 0 0 1-.44.32Z"/></svg>