<svg class="icon icon-facebook" width="25" height="25" fill="none"><path fill="#006ECF" d="M5.99 3.125A2.877 2.877 0 0 0 3.125 5.99v13.02a2.877 2.877 0 0 0 2.865 2.865h13.02a2.877 2.877 0 0 0 2.865-2.865V5.99a2.877 2.877 0 0 0-2.865-2.865H5.99Zm0 1.563h13.02a1.29 1.29 0 0 1 1.302 1.302v13.02a1.29 1.29 0 0 1-1.302 1.302h-3.385v-5.208h1.888a.521.521 0 0 0 .517-.457l.195-1.562a.52.52 0 0 0-.517-.585h-2.083v-1.823c0-.574.467-1.042 1.042-1.042h1.041a.52.52 0 0 0 .521-.52V7.357a.52.52 0 0 0-.474-.519c-.03-.003-.765-.067-1.696-.067-2.295 0-3.559 1.362-3.559 3.837V12.5h-2.083a.52.52 0 0 0-.521.52v1.563c0 .288.233.521.52.521H12.5v5.209H5.99a1.29 1.29 0 0 1-1.303-1.303V5.99A1.29 1.29 0 0 1 5.99 4.687Z"/></svg>