<svg class="icon icon-share" width="25" height="25" fill="none"><path fill="#006ECF" d="M18.75 2.604a3.658 3.658 0 0 0-3.646 3.646c0 .305.104.578.175.862l-6.245 3.124c-.67-.822-1.648-1.382-2.784-1.382A3.658 3.658 0 0 0 2.604 12.5a3.658 3.658 0 0 0 3.646 3.646c1.136 0 2.114-.56 2.784-1.382l6.245 3.125c-.071.283-.175.556-.175.861a3.658 3.658 0 0 0 3.646 3.646 3.658 3.658 0 0 0 3.646-3.646 3.658 3.658 0 0 0-3.646-3.646c-1.136 0-2.114.56-2.784 1.382L9.72 13.362c.071-.284.175-.557.175-.862 0-.305-.104-.578-.175-.861l6.245-3.125c.67.823 1.648 1.382 2.784 1.382a3.658 3.658 0 0 0 3.646-3.646 3.658 3.658 0 0 0-3.646-3.646Zm0 1.563c1.16 0 2.083.923 2.083 2.083 0 1.16-.923 2.083-2.083 2.083a2.072 2.072 0 0 1-2.083-2.083c0-1.16.923-2.083 2.083-2.083Zm-12.5 6.25c1.16 0 2.083.923 2.083 2.083 0 1.16-.923 2.083-2.083 2.083A2.072 2.072 0 0 1 4.167 12.5c0-1.16.923-2.083 2.083-2.083Zm12.5 6.25c1.16 0 2.083.923 2.083 2.083 0 1.16-.923 2.083-2.083 2.083a2.072 2.072 0 0 1-2.083-2.083c0-1.16.923-2.083 2.083-2.083Z"/></svg>