<svg id="Layer_1" data-name="Layer 1" xmlns="http://www.w3.org/2000/svg" width="24" height="24"><defs><style>.cls-1{fill:#2e6eb6}</style></defs><path class="cls-1" d="M17.31 16h-11a.44.44 0 0 1 0-.88h11a.44.44 0 1 1 0 .88ZM17.73 8.94h-11a.44.44 0 0 1 0-.88h11a.44.44 0 1 1 0 .88Z"/><path class="cls-1" d="M8 18a.4.4 0 0 1-.32-.14l-1.95-2a.43.43 0 0 1 0-.62l2-1.9a.43.43 0 0 1 .62 0 .44.44 0 0 1 0 .62L6.67 15.5l1.65 1.71a.44.44 0 0 1 0 .62A.43.43 0 0 1 8 18ZM16 10.84a.44.44 0 0 1-.3-.75l1.64-1.6-1.66-1.71a.43.43 0 0 1 0-.62.45.45 0 0 1 .62 0l2 2a.43.43 0 0 1 0 .62l-1.95 1.9a.43.43 0 0 1-.35.16ZM17.31 16a.46.46 0 0 1-.25-.08l-10.61-7a.45.45 0 0 1-.13-.61.44.44 0 0 1 .61-.12l10.62 7a.44.44 0 0 1 .12.61.42.42 0 0 1-.36.2Z"/><path class="cls-1" d="M7.88 9.72a.44.44 0 0 1-.24-.07l-1.18-.79a.41.41 0 0 1-.18-.49.43.43 0 0 1 .42-.31H8a.44.44 0 0 1 .44.44.43.43 0 0 1-.32.42.45.45 0 0 1 .12.61.44.44 0 0 1-.36.19ZM17.31 16H16a.44.44 0 0 1-.44-.44.45.45 0 0 1 .33-.43.44.44 0 1 1 .49-.72l1.18.78a.45.45 0 0 1 .18.49.45.45 0 0 1-.43.32Z"/><path class="cls-1" d="M12 23.8a2 2 0 0 1-1-.28l-8.47-4.87a2.07 2.07 0 0 1-1-1.78V7.13a2.07 2.07 0 0 1 1-1.78L11 .48a2.05 2.05 0 0 1 2 0l8.44 4.87a2.07 2.07 0 0 1 1 1.78v9.74a2.07 2.07 0 0 1-1 1.78L13 23.52a2.13 2.13 0 0 1-1 .28Zm0-22.72a1.14 1.14 0 0 0-.59.16L3 6.11a1.18 1.18 0 0 0-.58 1v9.74a1.18 1.18 0 0 0 .58 1l8.44 4.87a1.18 1.18 0 0 0 1.18 0L21 17.89a1.18 1.18 0 0 0 .58-1V7.13a1.18 1.18 0 0 0-.58-1l-8.41-4.89a1.14 1.14 0 0 0-.59-.16Z"/></svg>