<svg width="109" height="49" fill="none" xmlns="http://www.w3.org/2000/svg"><path d="M102.618 9.253s-6.4-11.244-55.264 2.49c0 0 56.965-24.668 55.264-2.49ZM5.925 39.699s6.399 11.248 55.26-2.485c0 0-56.961 24.667-55.26 2.485Z" fill="#00ACD7"/><path d="M11.133 20.66c-.567-.883-2.123-1.718-3.916-1.718-2.312 0-3.42.883-3.42 2.049 0 1.324 1.697 1.717 3.68 1.938 3.44.397 6.65 1.236 6.65 4.913 0 3.439-3.253 4.913-6.937 4.913-3.37 0-5.964-.971-7.19-3.788l2.593-1.258c.734 1.695 2.637 2.446 4.646 2.446 2.008 0 3.797-.64 3.797-2.313 0-1.453-1.626-2.049-3.82-2.27-3.37-.374-6.486-1.209-6.486-4.67 0-3.174 3.349-4.472 6.39-4.494 2.571 0 5.24.685 6.487 3.064l-2.474 1.188ZM45.362 32.397h3.763v-.203l-5.077-5.341c3.182-.605 4.237-2.772 4.237-4.922 0-2.706-2.083-5.165-6.03-5.187-2.659 0-5.318-.022-7.973-.022v15.675h3.16V19.494h4.835c1.987 0 2.87 1.254 2.87 2.503 0 1.25-.879 2.507-2.87 2.507H38.22l7.142 7.893ZM60.31 32.464h-3.278l-6.967-15.72h3.543l5.05 12.184 5.076-12.184h3.543l-6.967 15.72ZM73.57 16.744h-3.133v15.653h3.134V16.744ZM92.51 30.429a9.167 9.167 0 0 1-6.365 2.326c-6.223 0-8.86-4.004-8.882-8.074-.022-4.07 2.826-8.25 8.882-8.25a8.97 8.97 0 0 1 6.153 2.392l-2.105 1.903a5.988 5.988 0 0 0-4.043-1.48c-4.048 0-5.798 2.822-5.771 5.435.026 2.613 1.626 5.297 5.77 5.297a6.4 6.4 0 0 0 4.211-1.589l2.15 2.04ZM17.87 16.744h12.54v2.86h-9.405v3.642h8.627l-2.496 2.746h-6.131v3.496h9.405v2.91H17.87V16.743ZM96 16.744h12.543v2.86h-9.406v3.642h8.628l-2.501 2.746h-6.127v3.496h9.406v2.91H95.999V16.743ZM74.942 37.32h1.275v.048l-2.08 2.785 2.141 2.866v.035h-1.3l-1.57-2.154-1.57 2.154h-1.296v-.035l2.132-2.865-2.07-2.786v-.049h1.27l1.534 2.137 1.534-2.137ZM78.757 40.392h1.758a1.01 1.01 0 0 0 1.023-.603 1.023 1.023 0 0 0-.606-1.38 1.01 1.01 0 0 0-.417-.048h-1.758v2.03Zm1.758.993h-1.758v1.656h-1.16V37.3h2.896c2.998 0 3.006 4.058 0 4.058M101.058 38.706a1.818 1.818 0 0 0-1.46-.64c-.878 0-1.27.335-1.27.763 0 .499.633.636 1.367.72 1.284.145 2.475.441 2.475 1.827 0 1.276-1.209 1.824-2.58 1.824-1.253 0-2.198-.358-2.672-1.409l.962-.463a1.79 1.79 0 0 0 1.728.91c.729 0 1.415-.24 1.415-.862 0-.543-.607-.763-1.424-.843-1.253-.141-2.409-.441-2.409-1.74 0-1.178 1.244-1.663 2.374-1.668.958 0 1.947.252 2.413 1.14l-.919.44ZM107.453 38.706a1.818 1.818 0 0 0-1.459-.64c-.879 0-1.27.335-1.27.763 0 .499.632.636 1.366.72 1.284.145 2.475.441 2.475 1.827 0 1.276-1.209 1.824-2.58 1.824-1.253 0-2.198-.358-2.672-1.409l.962-.463a1.778 1.778 0 0 0 1.727.91c.73 0 1.416-.24 1.416-.862 0-.543-.607-.763-1.424-.843-1.253-.141-2.409-.441-2.409-1.74 0-1.178 1.244-1.663 2.374-1.668.958 0 1.947.252 2.412 1.14l-.918.44ZM88.15 43.063h1.38v-.071l-1.864-1.96a1.72 1.72 0 0 0 1.136-.588c.29-.336.44-.77.42-1.213 0-.993-.765-1.894-2.198-1.903h-2.923v5.739h1.156v-4.732h1.758a.918.918 0 0 1 .968.534.932.932 0 0 1-.234 1.083.921.921 0 0 1-.734.22H85.53l2.62 2.89ZM90.971 37.32h4.597v1.046h-3.45v1.333h3.16l-.914 1.01h-2.246v1.28h3.45v1.065h-4.597v-5.735ZM64.6 37.32h4.593v1.046h-3.446v1.333h3.16l-.914 1.01h-2.246v1.28h3.446v1.065H64.6v-5.735Z" fill="#002939"/></svg>