<svg fill="none" xmlns="http://www.w3.org/2000/svg" viewBox="0 0 110 50">
  <path d="M103.56 9.441s-6.458-11.473-55.772 2.54c0 0 57.488-25.17 55.772-2.54ZM5.98 40.509s6.457 11.477 55.766-2.536c0 0-57.483 25.171-55.767 2.536Z" fill="#00ACD7"/>
  <path d="M11.235 21.081c-.572-.9-2.142-1.752-3.952-1.752-2.333 0-3.45.9-3.45 2.09 0 1.351 1.711 1.752 3.712 1.977 3.473.406 6.71 1.262 6.71 5.014 0 3.509-3.282 5.013-6.999 5.013-3.402 0-6.019-.99-7.256-3.865l2.617-1.283c.74 1.73 2.661 2.495 4.688 2.495 2.027 0 3.832-.653 3.832-2.36 0-1.482-1.64-2.09-3.854-2.316C3.881 25.712.736 24.86.736 21.33c0-3.239 3.38-4.563 6.45-4.586 2.594 0 5.287.698 6.546 3.126l-2.497 1.212ZM45.779 33.059h3.796v-.208l-5.123-5.45c3.212-.617 4.276-2.829 4.276-5.023 0-2.761-2.102-5.27-6.085-5.293-2.684 0-5.367-.022-8.046-.022v15.996h3.189V19.892h4.879c2.005 0 2.896 1.28 2.896 2.554 0 1.275-.887 2.558-2.896 2.558H38.57l7.208 8.055ZM60.864 33.126h-3.31l-7.03-16.04H54.1l5.097 12.432 5.123-12.432h3.575l-7.03 16.04ZM74.246 17.086h-3.163v15.973h3.163V17.086ZM93.358 31.05a9.191 9.191 0 0 1-6.423 2.373c-6.28 0-8.942-4.085-8.964-8.238-.022-4.153 2.852-8.42 8.964-8.42 2.3-.014 4.52.859 6.21 2.442l-2.124 1.942a6.003 6.003 0 0 0-4.081-1.51c-4.085 0-5.85 2.88-5.824 5.546.027 2.666 1.641 5.405 5.824 5.405a6.418 6.418 0 0 0 4.249-1.622l2.169 2.082ZM18.035 17.086h12.654v2.919h-9.492v3.716h8.707l-2.52 2.802h-6.187v3.567h9.492v2.969H18.035V17.086ZM96.88 17.086h12.659v2.919h-9.492v3.716h8.707l-2.524 2.802h-6.183v3.567h9.492v2.969h-12.66V17.086ZM75.63 38.081h1.286v.05l-2.098 2.842 2.16 2.923v.036h-1.313l-1.584-2.198-1.583 2.198h-1.309v-.036l2.152-2.923-2.09-2.842v-.05h1.282l1.548 2.18 1.548-2.18ZM79.48 41.216h1.774a1.01 1.01 0 0 0 .785-.267 1.04 1.04 0 0 0 .335-.769 1.055 1.055 0 0 0-.335-.77 1.022 1.022 0 0 0-.785-.266H79.48v2.072Zm1.774 1.014H79.48v1.689h-1.171v-5.856h2.923c3.025 0 3.034 4.14 0 4.14M101.985 39.495a1.814 1.814 0 0 0-1.473-.653c-.887 0-1.282.343-1.282.78 0 .509.64.648 1.38.734 1.295.148 2.497.45 2.497 1.865 0 1.302-1.22 1.86-2.604 1.86-1.264 0-2.217-.365-2.696-1.437l.971-.473c.17.31.426.563.736.727.31.165.659.235 1.007.201.736 0 1.428-.243 1.428-.878 0-.554-.612-.78-1.437-.86-1.264-.145-2.43-.451-2.43-1.775 0-1.203 1.255-1.699 2.395-1.703.967 0 1.965.257 2.435 1.162l-.927.45ZM108.438 39.495a1.833 1.833 0 0 0-1.472-.653c-.887 0-1.282.343-1.282.78 0 .509.639.648 1.38.734 1.295.148 2.497.45 2.497 1.865 0 1.302-1.22 1.86-2.604 1.86-1.264 0-2.218-.365-2.697-1.437l.972-.473c.17.31.426.563.735.727.31.165.66.235 1.008.201.736 0 1.428-.243 1.428-.878 0-.554-.612-.78-1.437-.86-1.264-.145-2.431-.451-2.431-1.775 0-1.203 1.256-1.699 2.395-1.703.967 0 1.965.257 2.435 1.162l-.927.45ZM88.958 43.941h1.393v-.072l-1.88-2a1.73 1.73 0 0 0 1.146-.6c.292-.342.444-.785.423-1.237 0-1.014-.771-1.933-2.217-1.942h-2.95v5.856h1.167v-4.829h1.774a.917.917 0 0 1 .74.224.945.945 0 0 1 .32.713.96.96 0 0 1-.32.713.927.927 0 0 1-.74.224h-1.5l2.644 2.95ZM91.806 38.081h4.64v1.068h-3.483v1.36h3.19l-.923 1.032h-2.267v1.306h3.482v1.085h-4.64v-5.85ZM65.193 38.081h4.635v1.068H66.35v1.36h3.19l-.923 1.032H66.35v1.306h3.478v1.085h-4.635v-5.85Z" fill="#fff"/>
</svg>
